<svg xmlns="http://www.w3.org/2000/svg" viewBox="0.6100000143051147 0.25 86.78799438476562 97.70600128173828">
  <path fill="#c69815"
    d="M49.627 76.344c-15.504 0-28.49-12.55-28.49-27.29s13.096-27.296 28.49-27.296v10.916c-9.39 0-17.574 7.645-17.574 16.374s8.19 16.373 17.574 16.373v10.923z">
  </path>
  <path fill="#c69815"
    d="M49.517 97.955C22.552 97.955.61 76.013.61 49.048S22.552.25 49.517.25v10.916c-20.962 0-37.881 17.029-37.881 37.88S28.666 86.93 49.517 86.93v11.026zM49.517 87.04V76.122c14.849 0 26.965-12.116 26.965-26.965S64.366 22.083 49.517 22.083V11.167c20.962 0 37.881 17.029 37.881 37.88S70.479 87.04 49.517 87.04z">
  </path>
  <path fill="#c69815"
    d="M49.407 65.753V54.837c3.167 0 5.789-2.622 5.789-5.79s-2.622-5.788-5.79-5.788V32.343c9.17 0 16.705 7.535 16.705 16.705s-7.424 16.705-16.704 16.705z">
  </path>
</svg>